<?xml version="1.0" standalone="no"?>
<!DOCTYPE svg PUBLIC "-//W3C//DTD SVG 20010904//EN"
 "http://www.w3.org/TR/2001/REC-SVG-20010904/DTD/svg10.dtd">
<svg version="1.0" xmlns="http://www.w3.org/2000/svg"
 width="277.000000pt" height="212.000000pt" viewBox="0 0 277.000000 212.000000"
 preserveAspectRatio="xMidYMid meet">

<g transform="translate(0.000000,212.000000) scale(0.100000,-0.100000)"
fill="#000000" stroke="none">
<path d="M0 1060 l0 -1060 1385 0 1385 0 0 1060 0 1060 -1385 0 -1385 0 0
-1060z m960 870 c36 -5 89 -17 118 -25 l53 -16 -50 -45 c-27 -25 -68 -73 -91
-106 l-41 -62 -92 3 c-158 4 -293 -37 -406 -125 -43 -33 -45 -33 -65 -17 -50
41 -156 148 -156 158 1 32 213 163 323 201 117 39 278 53 407 34z m1353 -114
c53 -68 97 -127 97 -130 0 -3 -226 -6 -502 -6 -324 0 -517 -4 -541 -11 -48
-13 -111 -69 -140 -123 -33 -64 -31 -176 5 -237 34 -58 73 -92 132 -114 44
-17 44 -17 51 -77 4 -33 4 -89 0 -124 l-7 -64 -34 0 c-44 0 -153 41 -207 79
-92 64 -164 163 -197 270 -24 75 -26 211 -6 287 45 168 214 331 376 363 25 5
232 9 461 10 l416 1 96 -124z m-764 -238 c59 -80 97 -153 132 -258 29 -84 33
-111 37 -235 3 -118 1 -154 -17 -228 -77 -322 -311 -565 -637 -663 -77 -23
-107 -27 -224 -27 -128 0 -242 16 -288 42 -23 13 278 211 322 211 62 1 173 30
244 66 131 67 260 210 309 344 80 218 36 464 -113 629 -24 27 -44 54 -44 60 0
18 63 83 95 97 16 7 56 13 87 14 l57 0 40 -52z m519 -427 c149 -51 263 -163
322 -316 33 -85 33 -244 0 -330 -58 -151 -169 -263 -316 -317 -53 -19 -84 -22
-311 -26 -139 -2 -253 -1 -253 3 0 3 50 62 111 131 l111 124 116 0 c102 0 123
3 167 24 199 94 193 365 -10 457 -30 14 -65 19 -137 19 l-98 0 0 131 0 132
118 -6 c81 -3 136 -12 180 -26z"/>
</g>
</svg>
